<svg id="Capa_1" enable-background="new 0 0 512.002 512.002" height="512" viewBox="0 0 512.002 512.002" width="512" xmlns="http://www.w3.org/2000/svg"><g><g clip-rule="evenodd" fill-rule="evenodd"><path d="m319.641 36.337c-35.147-35.147-92.132-35.147-127.279 0s-35.147 92.132 0 127.279c12.174 12.175 26.97 20.13 42.57 23.869 5 8.668 10 17.335 15.008 26.008 2.744 4.737 9.555 4.582 12.165-.082 4.989-8.641 9.974-17.282 14.96-25.924 15.603-3.74 30.4-11.694 42.576-23.87 35.147-35.148 35.147-92.133 0-127.28z" fill="#fff"/><path d="m147.31 251.978-64.678-112.024c-6.875-11.908-22.242-16.026-34.15-9.15-11.908 6.875-16.026 22.243-9.151 34.15l50.244 87.025 28.867 50 15.889 27.521c6.875 11.908 22.242 16.025 34.15 9.15s16.026-22.243 9.151-34.15l-1.455-2.521z" fill="#a0c8ff"/><path d="m118.443 301.978-28.868-50h-79.575v50h26.001z" fill="#60a4ff"/><path d="m147.31 251.978 28.867 50h159.648l28.867-50z" fill="#60a4ff"/><path d="m429.37 139.954-64.678 112.025-28.867 50-1.455 2.521c-6.875 11.908-2.757 27.275 9.151 34.15s27.276 2.757 34.15-9.15l15.889-27.521 28.867-50 50.244-87.025c6.875-11.908 2.757-27.275-9.151-34.15-11.908-6.876-27.275-2.758-34.15 9.15z" fill="#a0c8ff"/><path d="m502.002 251.978h-79.575l-28.867 50h82.441 26.001z" fill="#60a4ff"/><path d="m476.001 301.978h-82.441l-15.889 27.521c-6.875 11.908-22.242 16.025-34.15 9.15s-16.026-22.243-9.151-34.15l1.455-2.521h-159.648l1.455 2.521c6.875 11.908 2.757 27.275-9.151 34.15s-27.275 2.757-34.15-9.15l-15.889-27.521h-82.441l20.001 160c2.729 21.831 18.001 40 40 40h319.998c21.999 0 37.271-18.171 40-40z" fill="#a0c8ff"/></g><g><path d="m502.002 241.978h-62.254l41.583-72.024c9.649-16.713 3.902-38.161-12.811-47.811-8.073-4.662-17.503-5.891-26.551-3.468-9.05 2.425-16.6 8.206-21.26 16.278l-61.791 107.024h-205.835l-61.79-107.024c-4.66-8.072-12.211-13.854-21.26-16.278-9.05-2.424-18.479-1.193-26.552 3.468h.001c-8.072 4.66-13.854 12.21-16.278 21.26s-1.194 18.479 3.467 26.551l41.584 72.024h-62.255c-5.522 0-10 4.477-10 10v50c0 5.523 4.478 10 10 10h17.173l18.906 151.24c3.588 28.709 24.117 48.76 49.923 48.76h319.998c25.806 0 46.334-20.051 49.923-48.76l18.906-151.24h17.173c5.522 0 10-4.477 10-10v-50c0-5.523-4.478-10-10-10zm-63.972-97.025c1.989-3.446 5.227-5.917 9.115-6.959 1.31-.351 2.636-.524 3.95-.524 2.592 0 5.139.674 7.425 1.994 7.163 4.136 9.626 13.328 5.49 20.49l-95 164.545c-4.135 7.163-13.325 9.627-20.49 5.49-7.163-4.136-9.626-13.328-5.491-20.49zm-391.508 3.627c1.042-3.889 3.514-7.126 6.96-9.116h.001c2.285-1.32 4.832-1.994 7.423-1.994 1.314 0 2.642.173 3.95.524 3.889 1.042 7.127 3.514 9.116 6.959l95 164.545c4.135 7.163 1.672 16.354-5.49 20.49-3.446 1.99-7.484 2.51-11.375 1.469-3.889-1.042-7.126-3.513-9.115-6.959l-95.001-164.544c-1.989-3.446-2.511-7.486-1.469-11.374zm-26.522 113.398h63.802l17.321 30h-81.123zm426.077 198.76c-1.881 15.046-12.095 31.241-30.077 31.241h-319.998c-17.982 0-28.196-16.194-30.077-31.241l-18.596-148.76h65.341l13.002 22.521c4.66 8.073 12.21 13.854 21.26 16.278 3.032.812 6.106 1.215 9.159 1.215 6.057 0 12.024-1.583 17.393-4.682 12.745-7.36 19.113-21.582 17.137-35.332h20.628c5.522 0 10-4.477 10-10s-4.478-10-10-10h-29.297l-17.32-30h182.741l-17.321 30h-28.803c-5.522 0-10 4.477-10 10s4.478 10 10 10h20.134c-1.976 13.75 4.392 27.972 17.139 35.332 5.498 3.175 11.507 4.682 17.441 4.682 12.104 0 23.895-6.278 30.369-17.493l13.002-22.521h65.34zm45.925-168.76h-81.122l17.321-30h63.801z"/><path d="m125.971 361.16c-.453-5.503-5.273-9.594-10.787-9.146-5.505.453-9.6 5.283-9.146 10.787l6.588 79.997c.431 5.225 4.805 9.18 9.956 9.18.274 0 .553-.011.831-.034 5.505-.453 9.6-5.283 9.146-10.787z"/><path d="m396.818 352.014c-5.506-.458-10.334 3.642-10.787 9.146l-6.588 79.997c-.453 5.504 3.642 10.334 9.146 10.787.279.023.556.034.831.034 5.151 0 9.525-3.955 9.956-9.18l6.588-79.997c.454-5.504-3.641-10.334-9.146-10.787z"/><path d="m214.993 361.681c-.165-5.521-4.824-9.854-10.295-9.696-5.521.166-9.861 4.775-9.695 10.295l2.4 79.997c.162 5.418 4.605 9.7 9.989 9.7.102 0 .204-.001.306-.004 5.521-.166 9.861-4.775 9.695-10.295z"/><path d="m307.304 351.985c-5.515-.154-10.129 4.176-10.295 9.696l-2.4 79.997c-.166 5.521 4.175 10.13 9.695 10.295.103.003.204.004.306.004 5.384 0 9.827-4.282 9.989-9.7l2.4-79.997c.166-5.52-4.175-10.129-9.695-10.295z"/><path d="m228.353 196.091 12.935 22.415c3.077 5.312 8.562 8.471 14.689 8.471h.133c6.078-.045 11.693-3.339 14.678-8.604l12.855-22.279c16.23-4.657 31.047-13.383 43.069-25.406 18.888-18.888 29.289-44 29.289-70.711s-10.401-51.824-29.289-70.712c-38.99-38.989-102.432-38.989-141.422 0-18.888 18.888-29.289 44-29.289 70.711s10.401 51.823 29.289 70.711c12.022 12.022 26.836 20.748 43.063 25.404zm-28.92-152.683c31.191-31.191 81.945-31.191 113.137 0 15.11 15.11 23.432 35.2 23.432 56.568 0 21.369-8.321 41.458-23.432 56.568-10.452 10.453-23.536 17.79-37.837 21.217-2.67.64-4.959 2.35-6.331 4.728l-12.403 21.495-12.404-21.497c-1.372-2.378-3.661-4.087-6.331-4.728-14.296-3.427-27.378-10.763-37.83-21.216-15.11-15.11-23.432-35.199-23.432-56.568-.001-21.367 8.32-41.457 23.431-56.567z"/><path d="m216.005 99.976c0-5.523-4.478-10-10-10h-.007c-5.522 0-9.997 4.477-9.997 10s4.481 10 10.004 10 10-4.477 10-10z"/><path d="m256.005 109.976c5.522 0 10-4.477 10-10s-4.478-10-10-10h-.008c-5.522 0-9.996 4.477-9.996 10s4.481 10 10.004 10z"/><path d="m306.005 109.976c5.522 0 10-4.477 10-10s-4.478-10-10-10h-.008c-5.522 0-9.996 4.477-9.996 10s4.481 10 10.004 10z"/><path d="m256.251 291.978h-.007c-5.522 0-9.996 4.477-9.996 10s4.48 10 10.003 10 10-4.477 10-10-4.478-10-10-10z"/></g></g></svg>